{
  "accessors": [
    {
      "bufferView": 0,
      "componentType": 5125,
      "count": 1044696,
      "type": "SCALAR"
    },
    {
      "bufferView": 1,
      "componentType": 5126,
      "count": 176770,
      "max": [
        1.00754749774933,
        1.03930187225342,
        1.02460241317749
      ],
      "min": [
        -1.02512645721436,
        -1.01982223987579,
        -1.02537953853607
      ],
      "type": "VEC3"
    },
    {
      "bufferView": 2,
      "componentType": 5126,
      "count": 176770,
      "type": "VEC3"
    },
    {
      "bufferView": 3,
      "componentType": 5126,
      "count": 176770,
      "type": "VEC2"
    }
  ],
  "asset": {
    "generator": "Adobe Substance 3D Painter 7.4.2",
    "version": "2.0"
  },
  "bufferViews": [
    {
      "buffer": 0,
      "byteLength": 4178784,
      "target": 34963
    },
    {
      "buffer": 0,
      "byteLength": 2121240,
      "byteOffset": 4178784,
      "target": 34962
    },
    {
      "buffer": 0,
      "byteLength": 2121240,
      "byteOffset": 6300024,
      "target": 34962
    },
    {
      "buffer": 0,
      "byteLength": 1414160,
      "byteOffset": 8421264,
      "target": 34962
    }
  ],
  "buffers": [
    {
      "byteLength": 9835424,
      "uri": "Untitled.bin"
    }
  ],
  "images": [
    {
      "uri": "PM3D_PolySphere_baseColor.png"
    },
    {
      "uri": "PM3D_PolySphere_occlusionRoughnessMetallic.png"
    },
    {
      "uri": "PM3D_PolySphere_normal.png"
    }
  ],
  "materials": [
    {
      "alphaMode": "OPAQUE",
      "name": "PM3D_PolySphere",
      "normalTexture": {
        "index": 2
      },
      "occlusionTexture": {
        "index": 1
      },
      "pbrMetallicRoughness": {
        "baseColorTexture": {
          "index": 0
        },
        "metallicRoughnessTexture": {
          "index": 1
        }
      }
    }
  ],
  "meshes": [
    {
      "name": "PM3D_PolySphere",
      "primitives": [
        {
          "attributes": {
            "NORMAL": 2,
            "POSITION": 1,
            "TEXCOORD_0": 3
          },
          "indices": 0,
          "material": 0,
          "mode": 4
        }
      ]
    }
  ],
  "nodes": [
    {
      "children": [
        1
      ],
      "name": "RootNode"
    },
    {
      "children": [
        2
      ],
      "name": "PM3D_PolySphere"
    },
    {
      "mesh": 0,
      "name": "PM3D_PolySphere"
    }
  ],
  "samplers": [
    {
      "magFilter": 9729,
      "minFilter": 9985,
      "wrapS": 10497,
      "wrapT": 10497
    }
  ],
  "scene": 0,
  "scenes": [
    {
      "name": "Scene",
      "nodes": [
        0
      ]
    }
  ],
  "textures": [
    {
      "sampler": 0,
      "source": 0
    },
    {
      "sampler": 0,
      "source": 1
    },
    {
      "sampler": 0,
      "source": 2
    }
  ]
}